<svg id="Слой_1" data-name="Слой 1" xmlns="http://www.w3.org/2000/svg" xmlns:xlink="http://www.w3.org/1999/xlink" viewBox="0 0 30.09 30.09">
  <defs>
    <style>
      .cls-1 {
        fill: url(#Безымянный_градиент_6);
      }

      .cls-2 {
        fill: #fff;
      }
    </style>
    <linearGradient id="Безымянный_градиент_6" data-name="Безымянный градиент 6" y1="15.04" x2="30.09" y2="15.04" gradientUnits="userSpaceOnUse">
      <stop offset="0" stop-color="#00f0ff"/>
      <stop offset="1" stop-color="#3fa9f5"/>
    </linearGradient>
  </defs>
  <title>ГАЛКА</title>
  <g>
    <circle class="cls-1" cx="15.04" cy="15.04" r="15.04"/>
    <path class="cls-2" d="M22.1,17.14,15.76,25a1.83,1.83,0,0,1-2.56.29h0a1.82,1.82,0,0,1-.28-2.57L17.54,17a1.56,1.56,0,0,0,0-2L12.91,9.24a1.82,1.82,0,0,1,.28-2.56h0A1.82,1.82,0,0,1,15.76,7l6.34,7.9A1.83,1.83,0,0,1,22.1,17.14Z" transform="translate(-0.96 -0.96)"/>
  </g>
</svg>
